<svg xmlns="http://www.w3.org/2000/svg" width="197.584" height="197.599" viewBox="0 0 197.584 197.599">
  <defs>
    <style>
      .cls-1 {
        fill: #fff;
      }

      .cls-2 {
        fill: #037865;
      }

      .cls-3 {
        fill: #fefdfd;
      }
    </style>
  </defs>
  <g id="Layer_2" data-name="Layer 2" transform="translate(0 0.04)">
    <g id="Layer_1" data-name="Layer 1" transform="translate(0 -0.04)">
      <circle id="Ellipse_72" data-name="Ellipse 72" class="cls-1" cx="89.745" cy="89.745" r="89.745" transform="translate(2.652 8.582)"/>
      <path id="Path_134" data-name="Path 134" class="cls-2" d="M109.21,197.559H88.363c-.494-.556-.5-.517-2.625-.845q-49.692-7.678-74.156-51.623A92.911,92.911,0,0,1,.714,110.772c-.05-.405.409-1.343-.714-1.2V87.956a1.516,1.516,0,0,0,.143.131c.042.035.124.1.135.085.51-.425.405-1.042.475-1.6A96.249,96.249,0,0,1,23.059,35.415Q48.233,5.689,86.981.67c.386-.05,1.158.224,1-.71H109.6c-.042.046-.089.093-.131.143s-.1.12-.089.135c.367.467.911.409,1.413.463a83.536,83.536,0,0,1,11.747,2.123,98.942,98.942,0,0,1,74.342,84.24c.054.448-.309,1.286.7,1.282v20.847c-1.011,0-.622.83-.7,1.282-.483,2.783-.772,5.6-1.347,8.362A98.881,98.881,0,0,1,110.5,196.861C110.047,196.915,109.2,196.548,109.21,197.559ZM98.829,156.372a74.121,74.121,0,0,0,14.581-1.278c11.493-2.154,22.1-6.335,30.911-14.241,7.933-7.111,12.74-15.739,11.968-26.769a2.929,2.929,0,0,1,1.606-3.185,14.334,14.334,0,1,0-15.971-23.788c-1.378,1.023-2.316,1.259-3.536.039a3.566,3.566,0,0,0-.645-.421c-10.423-6.563-21.858-9.7-34.057-10.423-1-.062-2.1.189-1.706-1.591,2.046-9.265,4.054-18.561,5.941-27.869.313-1.544.992-1.467,2.112-1.224,5.9,1.274,11.79,2.567,17.708,3.749a2.457,2.457,0,0,1,2.285,2.228,10.1,10.1,0,0,0,10.91,8,10.3,10.3,0,0,0,2.706-19.855,10.149,10.149,0,0,0-12.2,3.969,1.628,1.628,0,0,1-2.011.845c-7.146-1.571-14.311-3.058-21.468-4.579-2.957-.629-3.833-.089-4.459,2.857-2.2,10.358-4.44,20.712-6.563,31.089-.332,1.625-.772,2.316-2.61,2.4-13.014.61-25.178,4.038-36.045,11.431-.907.618-1.32.22-1.95-.255a14.359,14.359,0,1,0-16.056,23.7,1.913,1.913,0,0,1,1.077,2.131,28.657,28.657,0,0,0,.575,9.4c2.4,9.728,8.493,16.728,16.558,22.167C70.647,153.114,84.329,156.26,98.829,156.372Z" transform="translate(0 0.04)"/>
      <path id="Path_135" data-name="Path 135" class="cls-3" d="M151.273,218.563c-14.5-.112-28.182-3.258-40.331-11.47-8.057-5.439-14.16-12.438-16.558-22.167a28.656,28.656,0,0,1-.583-9.385,1.9,1.9,0,0,0-1.077-2.131,14.355,14.355,0,1,1,16.052-23.7c.629.475,1.042.872,1.95.255,10.867-7.393,23.032-10.809,36.045-11.431,1.818-.089,2.278-.772,2.61-2.4,2.116-10.377,4.351-20.731,6.563-31.089.625-2.946,1.5-3.474,4.459-2.857,7.157,1.521,14.322,3.007,21.468,4.579a1.628,1.628,0,0,0,2.011-.845,10.115,10.115,0,0,1,12.2-3.969,10.3,10.3,0,0,1-2.706,19.855,10.1,10.1,0,0,1-10.91-8,2.457,2.457,0,0,0-2.285-2.228c-5.918-1.181-11.809-2.475-17.708-3.749-1.12-.243-1.8-.32-2.112,1.224-1.888,9.308-3.9,18.592-5.941,27.869-.386,1.78.706,1.544,1.706,1.591,12.2.71,23.653,3.86,34.057,10.423a3.566,3.566,0,0,1,.645.421c1.2,1.22,2.158.984,3.536-.039a14.335,14.335,0,1,1,15.971,23.788,2.92,2.92,0,0,0-1.606,3.185c.772,11.029-4.046,19.658-11.968,26.769-8.813,7.906-19.418,12.087-30.911,14.241a74.121,74.121,0,0,1-14.573,1.259Zm32.853-47.249A10.269,10.269,0,1,0,173.807,181.5a10.269,10.269,0,0,0,10.319-10.184ZM128.662,181.5a10.269,10.269,0,1,0-10.319-10.184A10.269,10.269,0,0,0,128.662,181.5Zm23.383,24.591c2.061-.2,4.961-.347,7.81-.807,5.567-.9,10.906-2.459,15.249-6.339,1.509-1.347,1.722-3.011.606-4.2s-2.54-1.158-4.084.193a17.565,17.565,0,0,1-5.791,3.351A41.694,41.694,0,0,1,148.76,200.6c-6.632-.486-13.176-1.428-18.484-6.111a2.365,2.365,0,0,0-3.59.386,2.447,2.447,0,0,0,.116,3.494,17.531,17.531,0,0,0,4.988,3.575C137.9,205.059,144.517,205.777,152.045,206.09Z" transform="translate(-52.444 -62.151)"/>
      <path id="Path_136" data-name="Path 136" class="cls-2" d="M308.437,266.291a10.269,10.269,0,1,1-10.2-10.336A10.269,10.269,0,0,1,308.437,266.291Z" transform="translate(-176.756 -157.128)"/>
      <path id="Path_137" data-name="Path 137" class="cls-2" d="M180.988,276.451a10.268,10.268,0,1,1,10.2-10.337,10.266,10.266,0,0,1-10.2,10.337Z" transform="translate(-104.771 -157.104)"/>
      <path id="Path_138" data-name="Path 138" class="cls-2" d="M216.573,353.3c-7.543-.309-14.156-1.031-20.268-4.142a17.532,17.532,0,0,1-4.988-3.575,2.447,2.447,0,0,1-.116-3.494,2.339,2.339,0,0,1,3.59-.386c5.308,4.683,11.852,5.625,18.484,6.111a41.694,41.694,0,0,0,17.075-2.316,17.565,17.565,0,0,0,5.791-3.351c1.544-1.363,2.973-1.382,4.084-.193s.9,2.857-.606,4.2c-4.343,3.88-9.682,5.443-15.249,6.339C221.549,352.948,218.65,353.091,216.573,353.3Z" transform="translate(-116.972 -209.357)"/>
    </g>
  </g>
</svg>
