<svg xmlns="http://www.w3.org/2000/svg" width="92.954" height="92.961" viewBox="0 0 92.954 92.961">
  <defs>
    <style>
      .cls-1 {
        fill: #fff;
      }

      .cls-2 {
        fill: #40cace;
      }
    </style>
  </defs>
  <g id="Layer_2" data-name="Layer 2" transform="translate(0 0.04)">
    <g id="Layer_1" data-name="Layer 1" transform="translate(0 -0.04)">
      <circle id="Ellipse_72" data-name="Ellipse 72" class="cls-1" cx="42.221" cy="42.221" r="42.221" transform="translate(1.248 4.037)"/>
      <path id="Path_134" data-name="Path 134" class="cls-1" d="M51.378,92.921H41.57c-.232-.262-.234-.243-1.235-.4Q16.958,88.911,5.449,68.237A43.71,43.71,0,0,1,.336,52.091C.312,51.9.529,51.459,0,51.528V41.358a.713.713,0,0,0,.067.062c.02.016.058.045.064.04.24-.2.191-.49.223-.754A45.281,45.281,0,0,1,10.848,16.64,45.826,45.826,0,0,1,40.92.294c.182-.024.545.105.472-.334H51.563c-.02.022-.042.044-.062.067s-.045.056-.042.064c.173.22.429.193.665.218a39.3,39.3,0,0,1,5.527,1A46.547,46.547,0,0,1,92.625,40.938c.025.211-.145.6.329.6v9.807c-.476,0-.292.39-.329.6-.227,1.309-.363,2.635-.634,3.934A46.519,46.519,0,0,1,51.982,92.592C51.772,92.617,51.374,92.445,51.378,92.921ZM46.494,73.544a34.871,34.871,0,0,0,6.86-.6,29.186,29.186,0,0,0,14.542-6.7c3.732-3.345,5.993-7.4,5.63-12.593a1.378,1.378,0,0,1,.756-1.5A6.743,6.743,0,1,0,66.768,40.96c-.648.481-1.09.592-1.664.018a1.677,1.677,0,0,0-.3-.2,33.124,33.124,0,0,0-16.022-4.9c-.47-.029-.986.089-.8-.748.963-4.359,1.907-8.732,2.8-13.111.147-.726.467-.69.993-.576,2.775.6,5.547,1.208,8.331,1.764a1.156,1.156,0,0,1,1.075,1.048A4.749,4.749,0,0,0,66.3,28.018a4.844,4.844,0,0,0,1.273-9.341,4.775,4.775,0,0,0-5.737,1.867.766.766,0,0,1-.946.4c-3.362-.739-6.733-1.438-10.1-2.154-1.391-.3-1.8-.042-2.1,1.344-1.037,4.873-2.089,9.744-3.087,14.626-.156.765-.363,1.09-1.228,1.13a32.147,32.147,0,0,0-16.958,5.378c-.427.291-.621.1-.917-.12A6.755,6.755,0,1,0,18.952,52.3a.9.9,0,0,1,.507,1,13.481,13.481,0,0,0,.271,4.422c1.128,4.577,4,7.869,7.79,10.428C33.236,72.011,39.672,73.491,46.494,73.544Z" transform="translate(0 0.04)"/>
      <path id="Path_135" data-name="Path 135" class="cls-2" d="M116.4,156.443c-6.82-.053-13.258-1.533-18.974-5.4-3.79-2.559-6.662-5.852-7.79-10.428a13.482,13.482,0,0,1-.274-4.415.894.894,0,0,0-.507-1,6.753,6.753,0,1,1,7.552-11.148c.3.223.49.41.917.12a32.2,32.2,0,0,1,16.958-5.378c.855-.042,1.072-.363,1.228-1.13,1-4.882,2.047-9.753,3.087-14.626.294-1.386.706-1.635,2.1-1.344,3.367.716,6.738,1.415,10.1,2.154a.766.766,0,0,0,.946-.4,4.759,4.759,0,0,1,5.737-1.867,4.844,4.844,0,0,1-1.273,9.341,4.749,4.749,0,0,1-5.133-3.765A1.156,1.156,0,0,0,130,106.114c-2.784-.556-5.556-1.164-8.331-1.764-.527-.114-.846-.151-.993.576-.888,4.379-1.833,8.747-2.8,13.111-.182.837.332.726.8.748a33.036,33.036,0,0,1,16.022,4.9,1.678,1.678,0,0,1,.3.2c.567.574,1.015.463,1.664-.018a6.744,6.744,0,1,1,7.514,11.191,1.374,1.374,0,0,0-.756,1.5c.363,5.189-1.9,9.248-5.63,12.593a29.185,29.185,0,0,1-14.542,6.7,34.87,34.87,0,0,1-6.856.592Zm15.456-22.228A4.831,4.831,0,1,0,127,139.006a4.831,4.831,0,0,0,4.855-4.791Zm-26.093,4.791a4.831,4.831,0,1,0-4.855-4.791,4.831,4.831,0,0,0,4.855,4.791Zm11,11.569c.97-.1,2.334-.163,3.674-.38a13.544,13.544,0,0,0,7.174-2.982,1.319,1.319,0,0,0,.285-1.978c-.525-.561-1.2-.545-1.922.091a8.264,8.264,0,0,1-2.724,1.576,19.615,19.615,0,0,1-8.033,1.09c-3.12-.229-6.2-.672-8.7-2.875a1.113,1.113,0,0,0-1.689.182,1.151,1.151,0,0,0,.054,1.644,8.247,8.247,0,0,0,2.346,1.682C110.112,150.09,113.223,150.428,116.764,150.575Z" transform="translate(-69.907 -82.859)"/>
      <path id="Path_136" data-name="Path 136" class="cls-1" d="M297.562,260.817a4.831,4.831,0,1,1-4.8-4.863A4.831,4.831,0,0,1,297.562,260.817Z" transform="translate(-235.612 -209.461)"/>
      <path id="Path_137" data-name="Path 137" class="cls-1" d="M175.514,265.576a4.831,4.831,0,1,1,4.8-4.863,4.83,4.83,0,0,1-4.8,4.863Z" transform="translate(-139.657 -209.429)"/>
      <path id="Path_138" data-name="Path 138" class="cls-1" d="M202.779,346.8c-3.549-.145-6.66-.485-9.535-1.949a8.247,8.247,0,0,1-2.346-1.682,1.151,1.151,0,0,1-.054-1.644,1.1,1.1,0,0,1,1.689-.182c2.5,2.2,5.576,2.646,8.7,2.875a19.615,19.615,0,0,0,8.033-1.09,8.264,8.264,0,0,0,2.724-1.576c.726-.641,1.4-.65,1.921-.091a1.321,1.321,0,0,1-.285,1.978,13.544,13.544,0,0,1-7.174,2.982C205.12,346.634,203.756,346.7,202.779,346.8Z" transform="translate(-155.922 -279.081)"/>
    </g>
  </g>
</svg>
