<svg id="Layer_2" data-name="Layer 2" xmlns="http://www.w3.org/2000/svg" width="20.201" height="23.332" viewBox="0 0 20.201 23.332">
  <defs>
    <style>
      .cls-1 {
        fill: #40cace;
      }
    </style>
  </defs>
  <g id="Layer_1" data-name="Layer 1" transform="translate(0 0)">
    <path id="Path_24" data-name="Path 24" class="cls-1" d="M65.667,12.435a6.22,6.22,0,1,1,6.238-6.225A6.234,6.234,0,0,1,65.667,12.435Z" transform="translate(-55.587 0.004)"/>
    <path id="Path_27" data-name="Path 27" class="cls-1" d="M65.707,12.435a6.22,6.22,0,1,0-6.238-6.225A6.234,6.234,0,0,0,65.707,12.435Z" transform="translate(-55.587 0.004)"/>
    <path id="Path_25" data-name="Path 25" class="cls-1" d="M13.682,189.554c0,.113.006.2,0,.294-.038.511.086,1.133-.165,1.5s-.907.08-1.379.159a2.367,2.367,0,0,0-1.993,2.391,2.244,2.244,0,0,0,2.255,2.215c.99-.022,1.34.233,1.271,1.259-.065.936.379,1.442,1.556,2.221-.381.024-.647.053-.914.054q-5.732,0-11.464,0c-1.993,0-2.954-.98-2.8-2.956a9.947,9.947,0,0,1,4.5-7.784c.317-.217.578-.422,1.022-.108a7.561,7.561,0,0,0,7.812.8A1.149,1.149,0,0,1,13.682,189.554Z" transform="translate(-0.033 -176.318)"/>
    <path id="Path_28" data-name="Path 28" class="cls-1" d="M1.578,189.554c0,.113-.006.2,0,.294.038.511-.086,1.133.165,1.5s.907.08,1.379.159A2.367,2.367,0,0,1,5.115,193.9a2.244,2.244,0,0,1-2.255,2.215c-.99-.022-1.34.233-1.271,1.259.065.936-.379,1.442-1.556,2.221.381.023.647.053.914.054q5.731,0,11.464,0c1.993,0,2.954-.98,2.8-2.956a9.947,9.947,0,0,0-4.5-7.784c-.317-.217-.578-.422-1.022-.108a7.561,7.561,0,0,1-7.812.8A1.15,1.15,0,0,0,1.578,189.554Z" transform="translate(4.974 -176.318)"/>
  </g>
</svg>
