<svg id="Layer_2" data-name="Layer 2" xmlns="http://www.w3.org/2000/svg" width="40.241" height="34.804" viewBox="0 0 40.241 34.804">
  <defs>
    <style>
      .cls-1 {
        fill: #fff;
      }
    </style>
  </defs>
  <g id="Layer_1" data-name="Layer 1" transform="translate(0)">
    <path id="Path_76" data-name="Path 76" class="cls-1" d="M39.995,230.091a1.154,1.154,0,0,0-.829-.311H1.137a1.568,1.568,0,0,0-.285.021,1.1,1.1,0,0,0-.814.745l-.009.019v.456l.007.018a1.173,1.173,0,0,0,1.264.778h0c10.522-.007,21.219-.007,31.565-.007h6.449a1,1,0,0,0,.955-1,.983.983,0,0,0-.275-.721Z" transform="translate(-0.03 -213.397)"/>
    <path id="Path_77" data-name="Path 77" class="cls-1" d="M38.258,9.953a.285.285,0,0,0,.071.214.293.293,0,0,0,.214.066c.428-.006.933-.01,1.426,0h.023a.312.312,0,0,0,.229-.071A.334.334,0,0,0,40.3,9.91c-.006-.851,0-1.718,0-2.555V6.572a10.964,10.964,0,0,1,.171-2.225A2.481,2.481,0,0,1,42.516,2.23a8.437,8.437,0,0,1,1.7-.185c1.373-.011,2.763-.009,3.957,0a.315.315,0,0,0,.237-.071.307.307,0,0,0,.067-.229c-.008-.393-.007-.794-.006-1.181V0H42.5l-.021.009a.832.832,0,0,1-.266.054c-.051.008-.1.008-.152.018A4.642,4.642,0,0,0,38.269,4.46c-.016,1.167-.014,2.353-.012,3.5C38.259,8.614,38.26,9.289,38.258,9.953Z" transform="translate(-35.531)"/>
    <path id="Path_78" data-name="Path 78" class="cls-1" d="M382.773.56c0,.38.006.774,0,1.159a.327.327,0,0,0,.071.245.335.335,0,0,0,.256.076c.837-.006,1.689,0,2.513,0h.871a11.49,11.49,0,0,1,2.162.166,2.466,2.466,0,0,1,2.142,2.088,11.257,11.257,0,0,1,.183,2.184c.006,1.106,0,2.263-.005,3.439a.318.318,0,0,0,.071.237.307.307,0,0,0,.227.071h.021c.461-.009.934-.009,1.405,0a.317.317,0,0,0,.237-.071.31.31,0,0,0,.071-.23V7.9c0-1.057,0-2.151-.008-3.227A4.611,4.611,0,0,0,389.781.228a5.049,5.049,0,0,0-.694-.157c-.113-.024-.228-.044-.341-.071H382.77V.106C382.771.257,382.772.409,382.773.56Z" transform="translate(-355.481)"/>
    <path id="Path_79" data-name="Path 79" class="cls-1" d="M392.839,344.663a.324.324,0,0,0-.243-.071c-.486.01-.958.009-1.405,0a.319.319,0,0,0-.24.071.327.327,0,0,0-.076.245c.007,1.107.008,2.222,0,3.315a11.842,11.842,0,0,1-.152,2.128,2.515,2.515,0,0,1-2.237,2.271,8.671,8.671,0,0,1-1.586.155c-1.212.008-2.483.009-3.876,0a.367.367,0,0,0-.277.081.343.343,0,0,0-.071.261c.016.428.016.87,0,1.36a.28.28,0,0,0,.332.337h.006c1.39,0,2.8,0,4.165,0h1a5.567,5.567,0,0,0,.923-.081,4.563,4.563,0,0,0,2.6-1.455,4.513,4.513,0,0,0,1.186-2.729c.036-.574.03-1.135.024-1.678,0-.33-.006-.642,0-.927v-3.037A.326.326,0,0,0,392.839,344.663Z" transform="translate(-355.387 -320.02)"/>
    <path id="Path_80" data-name="Path 80" class="cls-1" d="M48.533,353.068a.256.256,0,0,0-.3-.3c-.822.005-1.658,0-2.466,0h-.919a11.4,11.4,0,0,1-2.116-.165,2.538,2.538,0,0,1-2.21-2.182,8.128,8.128,0,0,1-.165-1.544c-.006-1.377-.009-2.716-.006-3.98a.329.329,0,0,0-.076-.25.316.316,0,0,0-.237-.071c-.468.011-.948.011-1.426,0a.3.3,0,0,0-.227.071.318.318,0,0,0-.071.24v2.133c0,1.034,0,2.1,0,3.155a4.628,4.628,0,0,0,4.676,4.626h3.18c.671,0,1.364,0,2.046,0h.009a.263.263,0,0,0,.309-.311C48.523,354.058,48.522,353.592,48.533,353.068Z" transform="translate(-35.581 -320.006)"/>
  </g>
</svg>
