<svg xmlns="http://www.w3.org/2000/svg" width="23.656" height="23.659" viewBox="0 0 23.656 23.659">
  <defs>
    <style>
      .cls-1 {
        fill: #fff;
      }
    </style>
  </defs>
  <g id="Layer_2" data-name="Layer 2" transform="translate(0 0.003)">
    <g id="Layer_1" data-name="Layer 1" transform="translate(0 -0.003)">
      <path id="Path_85" data-name="Path 85" class="cls-1" d="M21.962,11a10.817,10.817,0,0,1-1.969,6.257c-.111.16-.112.243.03.383q1.576,1.554,3.129,3.126a1.691,1.691,0,0,1-.857,2.853,1.681,1.681,0,0,1-1.6-.517c-1.017-1.021-2.041-2.035-3.054-3.061-.144-.148-.232-.157-.4-.039A10.92,10.92,0,0,1,3.089,18.616,10.55,10.55,0,0,1,.053,9.976,10.98,10.98,0,0,1,21.7,8.6a10.752,10.752,0,0,1,.258,2.4ZM10.99,3.389a7.6,7.6,0,1,0,7.594,7.62,7.626,7.626,0,0,0-7.594-7.62Z" transform="translate(0 0.003)"/>
    </g>
  </g>
</svg>
