<svg xmlns="http://www.w3.org/2000/svg" width="31.448" height="22" viewBox="0 0 31.448 22">
  <defs>
    <style>
      .cls-1 {
        fill: #40cace;
      }
    </style>
  </defs>
  <g id="Layer_2" data-name="Layer 2" transform="translate(0 -0.008)">
    <g id="Layer_1" data-name="Layer 1" transform="translate(0 0.008)">
      <path id="Path_87" data-name="Path 87" class="cls-1" d="M0,11.077v-.14A25.675,25.675,0,0,1,3.785,5.458,15.712,15.712,0,0,1,26.516,4.34a22.9,22.9,0,0,1,4.933,6.6v.14a25.956,25.956,0,0,1-3.69,5.378c-6.273,6.927-15.946,7.434-22.876,1.175A22.932,22.932,0,0,1,0,11.077Zm15.638,7a7.033,7.033,0,1,0-4.99-2.125,7.072,7.072,0,0,0,4.99,2.125Z" transform="translate(0 -0.008)"/>
      <path id="Path_88" data-name="Path 88" class="cls-1" d="M88.505,58.578a3.9,3.9,0,1,1,3.872-3.914,3.859,3.859,0,0,1-3.872,3.914Z" transform="translate(-72.749 -43.675)"/>
    </g>
  </g>
</svg>
